<?xml version="1.0" standalone="no"?>
<!DOCTYPE svg PUBLIC "-//W3C//DTD SVG 20010904//EN"
 "http://www.w3.org/TR/2001/REC-SVG-20010904/DTD/svg10.dtd">
<svg version="1.0" xmlns="http://www.w3.org/2000/svg"
 width="1441.000000pt" height="1441.000000pt" viewBox="0 0 1441.000000 1441.000000"
 preserveAspectRatio="xMidYMid meet">

<g transform="translate(0.000000,1441.000000) scale(0.100000,-0.100000)"
fill="#000000" stroke="none">
<path d="M6825 12254 c-377 -30 -649 -75 -1057 -173 -745 -180 -1235 -416
-1601 -771 -123 -118 -179 -196 -207 -289 -24 -76 -25 -133 -4 -215 41 -158
163 -338 351 -516 204 -193 484 -348 885 -490 l147 -52 133 55 c342 142 581
196 1053 238 213 19 314 23 680 23 368 0 462 -4 650 -22 512 -51 728 -103
1030 -247 l112 -54 189 80 c496 210 749 361 955 568 254 256 320 482 206 710
-138 273 -542 575 -1056 788 -494 204 -923 303 -1536 353 -131 11 -838 21
-930 14z m830 -45 c515 -29 875 -93 1300 -233 469 -155 829 -345 1112 -588
261 -224 353 -439 279 -650 -33 -94 -123 -224 -225 -326 -181 -182 -399 -320
-771 -487 -139 -63 -338 -145 -351 -145 -6 0 -68 27 -137 59 -213 99 -348 140
-613 186 -346 59 -677 79 -1189 72 -588 -9 -949 -49 -1272 -143 -128 -37 -335
-112 -402 -146 -46 -24 -46 -24 -244 52 -197 77 -272 111 -272 127 0 7 -6 10
-14 7 -7 -3 -16 2 -20 11 -3 9 -11 13 -17 9 -7 -4 -10 -1 -7 7 3 8 10 13 16
12 7 -2 11 12 10 33 -1 19 -4 31 -7 27 -7 -11 -27 -11 -37 0 -4 4 -1 7 7 7 8
0 20 5 26 11 16 16 5 39 -15 31 -16 -5 -16 -5 0 11 9 9 23 17 30 17 10 0 10 2
-1 9 -13 8 -13 12 -1 26 18 22 22 48 7 38 -8 -5 -8 -2 0 8 10 13 10 19 -2 35
-15 19 -15 19 -9 -1 3 -12 2 -16 -3 -9 -4 6 -15 14 -23 17 -12 4 -12 6 2 6 15
1 16 5 7 27 -5 15 -7 29 -5 32 3 2 8 -8 12 -22 7 -31 18 -26 20 9 0 13 -3 22
-9 18 -5 -3 -6 4 -2 18 3 13 9 32 11 42 3 9 1 17 -4 17 -6 0 -9 15 -8 33 1 22
6 31 16 29 12 -3 12 -1 3 9 -9 9 -10 16 -2 26 9 9 8 17 -1 28 -10 12 -8 21 8
48 14 24 16 34 6 34 -7 0 -12 -5 -11 -10 1 -5 -3 -11 -9 -14 -8 -3 -9 8 -5 34
8 45 7 100 -3 131 -6 16 -3 22 9 22 12 0 14 7 9 28 -4 21 -3 24 5 12 6 -8 11
-10 11 -4 0 6 -7 17 -15 24 -12 10 -13 16 -4 26 6 8 8 14 4 14 -4 0 -3 6 2 13
6 6 8 23 6 37 -2 14 -4 39 -4 55 l0 30 -14 -25 c-8 -14 -14 -19 -15 -12 0 15
36 52 51 52 8 0 8 4 -1 15 -6 8 -15 14 -18 13 -21 -2 -32 3 -26 13 4 8 9 7 15
-2 5 -8 9 -12 10 -9 0 3 2 12 4 21 2 10 -3 16 -13 15 -9 0 -17 7 -17 17 0 9 5
16 10 15 6 -2 9 -6 7 -10 -3 -12 11 -9 32 7 20 15 20 15 0 15 -28 0 -45 42
-27 66 12 16 11 21 -4 33 -16 12 -16 13 -1 8 10 -3 20 -2 23 3 4 6 0 10 -7 10
-9 0 -9 3 2 10 13 8 12 10 -4 10 -18 0 -18 1 -1 20 16 18 16 20 1 26 -13 5
-14 9 -5 20 8 10 8 14 0 14 -6 0 -11 5 -11 11 0 5 4 8 9 4 5 -3 12 -1 16 5 3
5 2 10 -4 10 -5 0 -9 9 -8 20 1 14 6 18 19 14 13 -4 18 0 18 13 0 15 -2 16
-10 3 -7 -11 -10 -11 -10 -2 0 7 -6 10 -12 7 -7 -4 -6 -1 2 7 19 17 23 38 8
38 -9 0 -8 4 2 10 8 5 11 10 7 10 -4 0 -3 9 3 19 6 12 6 22 1 25 -5 4 -14 -6
-19 -21 -6 -16 -11 -23 -11 -16 -1 6 3 23 9 37 6 18 6 26 -1 26 -6 0 -9 6 -6
14 3 8 1 17 -6 20 -7 2 -1 5 12 5 13 1 21 4 18 8 -4 3 -2 12 4 20 9 10 8 17
-2 30 -12 15 -12 16 2 11 12 -5 16 -1 15 15 -1 18 17 29 119 70 444 181 1059
335 1565 393 282 32 648 36 1065 13z m-2780 -479 c-3 -5 -12 -10 -18 -10 -7 0
-6 4 3 10 19 12 23 12 15 0z m-17 -775 c-3 -3 -9 2 -12 12 -6 14 -5 15 5 6 7
-7 10 -15 7 -18z m-23 -95 c3 -5 -1 -10 -10 -10 -9 0 -13 5 -10 10 3 6 8 10
10 10 2 0 7 -4 10 -10z m10 -30 c3 -5 1 -10 -4 -10 -6 0 -11 5 -11 10 0 6 2
10 4 10 3 0 8 -4 11 -10z m-12 -90 c-3 -11 -9 -17 -15 -14 -5 3 -4 12 3 20 16
19 18 18 12 -6z m-12 -53 c-10 -9 -11 -8 -5 6 3 10 9 15 12 12 3 -3 0 -11 -7
-18z m21 -461 c7 4 8 2 4 -4 -15 -24 -33 -13 -27 16 5 25 6 25 9 4 2 -13 8
-19 14 -16z m-50 -58 c-7 -7 -12 -8 -12 -2 0 14 12 26 19 19 2 -3 -1 -11 -7
-17z m8 -134 c0 -8 -4 -14 -9 -14 -6 0 -9 9 -8 19 1 22 17 18 17 -5z"/>
<path d="M4850 10781 c0 -6 4 -13 10 -16 6 -3 7 1 4 9 -7 18 -14 21 -14 7z"/>
<path d="M3837 10293 c-11 -10 -8 -1231 3 -1454 17 -331 43 -456 129 -627 190
-375 578 -657 1195 -868 209 -72 858 -254 904 -254 20 0 22 5 22 68 0 37 3
520 7 1074 l6 1006 -39 7 c-186 32 -668 134 -784 166 -513 143 -946 404 -1350
813 -75 77 -81 81 -93 69z m207 -248 c21 -19 41 -35 46 -35 5 0 19 -10 32 -23
154 -150 555 -399 799 -496 103 -40 306 -107 399 -131 135 -35 710 -150 747
-150 5 0 -8 -2073 -13 -2079 -9 -10 -637 167 -864 244 -433 147 -709 303 -930
524 -86 86 -120 124 -153 171 -63 91 -88 135 -78 138 6 2 11 8 11 13 0 4 -7 5
-17 2 -10 -4 -14 -2 -10 4 4 6 0 16 -8 23 -8 7 -15 21 -15 31 0 11 -4 19 -10
19 -5 0 -10 9 -10 20 0 11 5 20 10 20 7 0 7 6 0 20 -8 14 -8 20 0 20 8 0 9 16
3 53 -4 28 -8 78 -8 109 1 40 -3 54 -10 47 -5 -5 -10 -14 -10 -20 0 -5 -4 -8
-10 -6 -5 1 -8 7 -6 12 2 6 4 16 4 23 0 6 4 12 8 12 4 0 6 12 3 28 -3 19 -2
23 5 12 5 -8 8 -17 5 -21 -2 -4 1 -11 7 -15 7 -4 9 -3 5 4 -3 6 -2 13 3 17 6
3 7 13 4 23 -6 14 -4 15 8 5 12 -10 15 -8 15 6 0 13 -5 17 -16 13 -8 -3 -12
-2 -8 3 4 4 3 14 -3 22 -9 10 -8 13 0 13 7 0 10 4 7 9 -3 5 1 14 9 21 8 7 15
20 15 29 -1 11 -5 8 -15 -9 -8 -14 -15 -20 -15 -15 0 6 -5 3 -10 -5 -7 -12 -9
-10 -7 7 0 12 5 19 11 16 5 -4 7 3 4 15 -4 12 -2 20 2 17 5 -3 6 23 3 57 -4
56 -3 61 11 49 14 -12 16 -11 10 4 -4 10 -3 16 2 13 5 -3 18 -2 29 3 18 8 17
8 -5 6 -14 -1 -25 3 -25 10 0 6 -4 15 -9 20 -5 5 -6 2 -1 -6 5 -9 4 -12 -2 -8
-5 3 -9 16 -7 29 1 13 3 29 3 37 1 8 8 11 20 8 14 -3 17 0 14 14 -3 11 -10 19
-15 19 -5 0 -6 -6 -2 -12 6 -10 5 -10 -7 -1 -19 15 -24 117 -6 110 7 -2 21 -1
32 4 17 7 18 8 3 10 -10 1 -22 3 -28 4 -5 1 -13 3 -16 4 -3 0 -2 6 1 11 4 6
12 7 18 3 22 -13 33 -11 33 7 0 10 -3 17 -7 14 -4 -2 -9 -1 -12 3 -2 5 -2 1 0
-7 3 -9 -4 -7 -16 7 -12 12 -21 28 -21 35 0 10 2 10 9 0 6 -11 9 -9 14 7 3 12
-1 22 -9 25 -8 3 -14 11 -13 18 0 10 2 10 6 1 2 -7 9 -13 14 -13 13 0 2 52
-13 62 -8 5 -1 6 17 2 17 -3 25 -2 19 3 -13 10 -11 62 3 71 14 10 17 122 4
122 -6 0 -12 -8 -12 -17 -1 -17 -2 -17 -6 0 -4 15 -7 16 -21 5 -15 -11 -15
-11 -5 2 15 20 21 65 7 63 -6 -1 -9 8 -8 20 1 12 3 28 3 35 1 6 8 12 17 12 14
0 14 -1 0 -16 -16 -16 -13 -34 5 -34 6 0 8 4 4 9 -3 5 -1 12 5 16 5 3 10 -2
11 -12 0 -16 1 -16 9 2 5 13 3 26 -6 36 -8 8 -14 25 -14 36 0 12 -7 24 -16 27
-21 8 -6 29 17 23 26 -7 24 8 -3 21 l-23 11 23 7 c12 3 22 14 21 23 0 10 -2
11 -6 4 -2 -7 -9 -13 -14 -13 -6 0 -7 5 -4 10 4 6 1 19 -7 28 -12 15 -11 16 4
4 12 -10 18 -10 24 -1 4 8 3 9 -4 5 -7 -4 -12 -2 -12 3 0 6 -9 11 -20 11 -11
0 -20 4 -20 8 0 5 17 7 38 6 29 -3 33 -1 19 7 -9 6 -22 7 -27 4 -9 -5 -9 4 -1
44 1 2 7 -2 15 -8 9 -7 17 -8 20 -3 3 6 -6 13 -19 16 -14 4 -23 11 -20 16 4 6
10 8 15 5 5 -3 11 -1 15 4 3 6 -3 8 -14 6 -11 -2 -22 2 -24 10 -4 9 1 11 15 7
14 -3 19 -1 15 6 -4 5 -1 13 5 15 8 3 6 6 -4 6 -12 1 -18 9 -18 23 0 17 -3 19
-12 10 -8 -8 -8 -15 2 -27 10 -12 10 -15 -5 -15 -10 0 -15 3 -12 7 4 3 2 12
-4 20 -9 9 -8 13 0 13 6 0 10 3 10 8 -5 32 11 29 55 -13z m-47 -220 c0 -8 -4
-12 -9 -9 -5 3 -6 10 -3 15 9 13 12 11 12 -6z m10 -124 c-1 -15 -4 -17 -14 -9
-15 12 -17 22 -3 13 6 -3 10 -1 10 4 0 6 2 11 4 11 3 0 4 -9 3 -19z m-6 -243
c0 -10 2 -10 6 0 2 6 9 12 15 12 6 0 4 -8 -5 -18 -10 -10 -17 -24 -17 -30 0
-6 -4 -13 -9 -16 -10 -7 -9 20 2 30 4 4 2 13 -4 21 -9 9 -8 13 0 13 6 0 11 -6
12 -12z m4 -78 c3 -5 1 -10 -4 -10 -6 0 -11 5 -11 10 0 6 2 10 4 10 3 0 8 -4
11 -10z m-45 -416 c0 -22 -16 -17 -17 6 -1 11 2 18 8 15 5 -4 9 -13 9 -21z
m-8 -523 c3 -18 0 -27 -6 -25 -12 4 -16 54 -5 54 4 0 9 -13 11 -29z m11 -56
c-3 -9 -8 -14 -10 -11 -3 3 -2 9 2 15 9 16 15 13 8 -4z"/>
<path d="M4044 9592 c4 -7 1 -12 -8 -12 -8 0 -17 -4 -20 -9 -4 -5 3 -7 14 -4
26 7 34 19 19 29 -8 4 -9 3 -5 -4z"/>
<path d="M4025 9410 c-3 -5 -1 -10 4 -10 6 0 11 5 11 10 0 6 -2 10 -4 10 -3 0
-8 -4 -11 -10z"/>
<path d="M4020 9261 c0 -6 4 -13 10 -16 6 -3 7 1 4 9 -7 18 -14 21 -14 7z"/>
<path d="M3996 9135 c4 -9 9 -13 12 -11 3 3 12 0 20 -7 13 -9 14 -9 8 0 -4 7
-16 18 -26 23 -16 9 -18 8 -14 -5z"/>
<path d="M4023 8895 c0 -8 4 -12 9 -9 4 3 8 9 8 15 0 5 -4 9 -8 9 -5 0 -9 -7
-9 -15z"/>
<path d="M4000 8863 c0 -19 21 -27 33 -13 9 10 9 11 -2 5 -8 -4 -17 -2 -22 6
-6 9 -9 10 -9 2z"/>
<path d="M4006 8573 c-4 -9 -3 -20 1 -24 4 -4 9 3 9 17 2 28 -1 31 -10 7z"/>
<path d="M4006 8403 c-6 -14 -5 -15 5 -6 7 7 10 15 7 18 -3 3 -9 -2 -12 -12z"/>
<path d="M10335 10129 c-286 -269 -469 -400 -757 -546 -161 -81 -346 -151
-535 -202 -124 -34 -572 -128 -748 -158 l-50 -8 3 -1070 c1 -588 6 -1073 11
-1078 4 -4 50 3 102 16 995 259 1338 403 1692 706 194 167 348 402 400 611 43
174 57 485 57 1283 0 463 -3 587 -12 587 -7 -1 -80 -64 -163 -141z m145 -501
c-1 -590 -10 -937 -30 -1083 -41 -303 -198 -558 -479 -783 -316 -253 -638
-385 -1489 -612 -107 -28 -195 -50 -197 -48 -1 2 -4 471 -6 1043 l-4 1039 100
18 c393 71 732 154 950 235 105 38 298 130 405 191 213 123 384 252 600 455
74 69 138 127 143 127 4 0 7 -262 7 -582z"/>
<path d="M5693 6405 c-57 -10 -518 -12 -2349 -11 -2184 2 -2279 1 -2296 -16
-17 -17 -18 -67 -18 -1008 0 -930 1 -991 18 -1007 16 -17 142 -18 2317 -21
1345 -2 2320 -7 2349 -13 62 -12 194 -11 271 0 33 5 177 12 320 16 180 5 262
10 267 18 4 7 9 129 10 272 l2 260 6 -263 c5 -246 6 -265 24 -278 30 -22 398
-20 420 2 14 13 16 66 16 420 l0 404 53 0 52 0 115 -397 c63 -218 123 -407
133 -419 18 -24 20 -24 222 -24 172 0 206 2 219 16 9 8 16 19 16 23 0 5 -52
167 -116 362 -64 195 -127 390 -141 433 l-25 80 28 20 c103 71 189 205 220
342 23 105 15 291 -16 384 -68 201 -224 343 -425 385 -100 21 -742 22 -771 1
-18 -13 -19 -32 -24 -248 -6 -220 -6 -224 -8 -71 -1 102 -6 163 -13 165 -17 6
-18 42 0 62 9 11 11 16 5 13 -16 -9 -28 41 -14 57 14 17 -90 26 -314 26 -105
0 -202 6 -251 15 -97 17 -206 18 -302 0z m339 -34 c213 -55 362 -201 403 -398
22 -101 21 -1107 0 -1208 -22 -104 -59 -171 -139 -250 -124 -123 -243 -166
-451 -166 -139 0 -206 14 -314 67 -89 44 -173 124 -218 210 -61 115 -63 132
-63 741 0 370 4 569 11 605 43 200 203 358 411 403 97 21 270 19 360 -4z
m-4188 -16 c99 -26 166 -65 241 -140 119 -118 168 -250 168 -450 1 -270 -121
-467 -338 -547 -52 -19 -87 -23 -250 -28 l-190 -5 -5 -405 c-3 -223 -7 -406
-8 -408 -1 -1 -91 -1 -199 0 l-198 3 -3 985 c-1 542 0 991 3 998 7 19 701 17
779 -3z m1380 6 c8 -12 446 -1951 446 -1973 0 -17 -10 -18 -202 -16 l-203 3
-21 120 c-11 66 -24 137 -28 158 l-7 37 -214 0 c-214 0 -215 0 -220 -22 -2
-13 -16 -85 -31 -160 l-27 -138 -200 0 -199 0 7 38 c4 20 80 359 170 752 90
393 187 821 216 950 29 129 57 241 62 248 11 14 442 18 451 3z m1034 -43 c11
-29 99 -273 197 -543 97 -269 181 -498 187 -508 5 -10 15 -16 21 -14 9 3 13
144 17 558 l5 554 195 0 195 0 0 -995 0 -995 -213 -3 c-212 -2 -212 -2 -222
20 -6 13 -97 264 -203 558 -143 396 -197 536 -210 538 -16 3 -17 -37 -19 -555
l-3 -558 -195 0 -195 0 -3 985 c-1 542 0 991 3 998 3 9 55 12 214 12 l210 0
19 -52z m3097 42 c79 -12 188 -59 252 -111 80 -64 141 -159 181 -284 25 -75
24 -311 -2 -385 -41 -122 -106 -209 -223 -302 l-22 -17 35 -108 c19 -59 83
-256 143 -438 60 -181 106 -333 104 -337 -6 -11 -391 -10 -398 1 -3 5 -57 189
-121 408 -64 219 -120 404 -126 411 -8 9 -33 12 -82 10 l-71 -3 -3 -412 -2
-413 -23 -5 c-12 -3 -98 -5 -192 -3 l-170 3 -3 990 c-2 784 0 990 10 997 19
11 630 9 713 -2z m-768 -507 c-3 -10 -5 -4 -5 12 0 17 2 24 5 18 2 -7 2 -21 0
-30z"/>
<path d="M5810 6060 c-59 -11 -98 -38 -127 -88 l-28 -47 0 -555 0 -555 25 -45
c62 -111 203 -131 301 -43 68 62 69 69 69 634 0 324 -4 516 -11 549 -23 107
-120 171 -229 150z"/>
<path d="M1472 5763 l3 -278 75 -3 c114 -5 174 12 226 63 51 52 74 118 74 215
0 128 -49 222 -135 261 -30 14 -65 19 -143 19 l-102 0 2 -277z"/>
<path d="M2994 5768 c-12 -18 -154 -760 -148 -770 3 -4 72 -8 155 -8 135 0
149 2 149 18 1 46 -124 749 -135 760 -11 12 -14 12 -21 0z"/>
<path d="M7033 6043 c-10 -3 -13 -67 -13 -268 0 -222 2 -264 15 -275 11 -9 43
-11 113 -8 141 7 197 40 243 143 27 60 32 174 10 249 -19 64 -90 140 -146 155
-40 11 -199 14 -222 4z m244 -50 c23 -12 50 -39 67 -67 26 -41 31 -60 34 -136
5 -102 -7 -146 -51 -196 -47 -55 -74 -64 -182 -64 l-95 0 0 238 c0 131 3 242
8 246 14 16 179 0 219 -21z"/>
<path d="M8391 6409 c-249 -44 -428 -207 -476 -434 -21 -102 -22 -1107 0
-1210 47 -222 215 -382 455 -431 119 -24 286 -16 396 20 197 63 338 216 379
411 22 103 22 1107 0 1210 -42 200 -202 364 -410 419 -73 20 -270 29 -344 15z
m297 -35 c113 -23 211 -73 285 -147 74 -74 110 -138 137 -243 19 -72 20 -112
20 -613 0 -599 -2 -620 -66 -741 -93 -178 -288 -280 -534 -280 -189 0 -336 54
-445 163 -67 67 -102 126 -132 222 -17 55 -18 105 -18 635 0 566 0 576 22 645
74 236 279 371 566 374 48 1 123 -6 165 -15z"/>
<path d="M8455 6055 c-48 -17 -97 -70 -113 -123 -16 -51 -17 -1070 -2 -1124
31 -111 166 -169 276 -119 45 21 85 67 103 120 16 50 16 1069 -1 1125 -17 56
-74 110 -131 124 -58 15 -82 15 -132 -3z m149 -35 c23 -11 52 -36 66 -57 l25
-37 3 -544 c3 -537 2 -545 -19 -588 -32 -66 -70 -89 -151 -89 -80 0 -111 19
-146 86 l-23 44 3 545 3 545 24 39 c44 70 137 94 215 56z"/>
<path d="M9294 6390 c-14 -5 -23 -20 -27 -42 -2 -18 -4 -370 -2 -783 2 -665 4
-757 19 -810 45 -164 151 -297 290 -365 98 -49 192 -70 311 -70 250 0 452 115
549 311 65 133 66 143 66 985 l0 754 -24 15 c-21 14 -54 16 -216 13 -176 -3
-193 -5 -206 -22 -12 -17 -14 -140 -14 -781 l0 -761 -22 -44 c-61 -119 -208
-121 -268 -4 l-25 48 -3 766 c-2 764 -2 765 -23 783 -19 15 -44 17 -203 16
-99 0 -191 -4 -202 -9z m396 -795 l5 -770 24 -48 c53 -109 190 -141 277 -65
73 65 68 6 74 873 l5 780 195 0 195 0 3 -755 c2 -670 1 -763 -14 -830 -46
-212 -196 -365 -405 -415 -146 -34 -355 -11 -472 52 -80 44 -169 133 -211 212
-72 138 -71 116 -69 963 1 417 5 762 8 768 4 7 73 9 193 8 l187 -3 5 -770z"/>
<path d="M10663 6385 l-23 -16 0 -998 c0 -954 1 -999 18 -1014 16 -15 46 -17
208 -17 104 0 196 5 204 10 13 8 16 82 20 536 l5 527 169 -469 c93 -258 178
-493 188 -522 32 -85 22 -82 256 -82 172 0 211 3 230 16 l22 15 0 993 c0 840
-2 995 -14 1012 -13 17 -30 19 -201 22 -157 3 -190 1 -211 -13 l-24 -15 0
-522 c0 -297 -4 -518 -9 -512 -4 5 -38 92 -74 194 -179 499 -306 843 -316 853
-8 8 -80 13 -219 15 -177 2 -210 0 -229 -13z m628 -565 c109 -300 202 -552
207 -560 29 -44 32 12 34 549 2 391 6 545 14 552 7 5 90 8 195 7 l184 -3 0
-995 0 -995 -211 -3 c-195 -2 -212 -1 -219 15 -5 15 -352 977 -387 1076 -7 18
-16 27 -27 25 -14 -3 -16 -55 -21 -558 l-5 -555 -190 0 -190 0 -3 985 c-1 542
0 991 3 998 3 10 51 12 212 10 l207 -3 197 -545z"/>
<path d="M12140 6393 c-41 -14 -40 3 -40 -1025 l0 -988 21 -21 c20 -20 26 -21
372 -16 384 5 406 7 535 69 87 41 190 140 235 226 64 121 67 158 67 740 0 480
-1 524 -19 594 -26 102 -60 165 -125 235 -97 104 -224 164 -389 182 -97 11
-629 14 -657 4z m764 -47 c177 -52 307 -169 368 -332 22 -58 23 -68 26 -615 3
-616 2 -635 -59 -750 -34 -63 -109 -143 -179 -189 -25 -17 -81 -42 -125 -57
l-80 -27 -360 -1 -360 0 -3 985 c-1 542 0 991 3 998 4 11 71 13 357 9 297 -3
362 -7 412 -21z"/>
<path d="M12536 6024 c-10 -25 -7 -1297 3 -1313 14 -22 193 -15 243 10 50 25
94 87 107 150 17 80 15 963 -3 1022 -19 62 -50 104 -96 127 -52 27 -244 30
-254 4z m246 -32 c19 -12 45 -40 58 -64 l25 -43 3 -488 c3 -508 1 -536 -41
-597 -36 -54 -76 -72 -178 -78 l-89 -5 0 645 c0 355 3 648 8 652 4 5 46 6 94
3 64 -3 95 -10 120 -25z"/>
<path d="M4813 3739 c-39 -11 -73 -53 -73 -89 0 -38 36 -73 117 -113 82 -42
97 -58 89 -92 -13 -52 -99 -45 -122 10 -12 29 -19 35 -44 35 -34 0 -45 -17
-36 -55 7 -26 59 -65 86 -65 8 1 1 7 -17 15 -34 14 -53 41 -53 74 0 31 38 28
46 -4 12 -49 72 -69 128 -43 29 12 40 38 31 67 -3 11 -43 39 -95 66 -96 49
-113 68 -108 117 10 106 248 100 248 -7 0 -35 -37 -35 -46 0 -16 65 -122 75
-154 15 -17 -33 4 -57 89 -100 78 -39 121 -78 121 -109 0 -26 -30 -62 -64 -77
-17 -7 -24 -13 -15 -14 9 0 31 10 50 23 28 19 35 30 37 63 4 50 -14 68 -124
127 -84 45 -100 69 -69 101 36 35 115 5 115 -44 0 -16 7 -20 35 -20 68 0 58
71 -15 108 -46 23 -101 27 -157 11z"/>
<path d="M6043 3731 c-23 -11 -46 -28 -52 -39 -14 -26 -14 -247 -1 -273 11
-20 60 -49 82 -49 7 1 -1 7 -17 14 -51 22 -59 40 -63 145 -5 114 5 158 40 184
33 24 114 33 161 18 62 -21 67 -34 69 -176 1 -127 1 -128 -25 -151 -16 -13
-46 -25 -74 -29 -72 -9 -82 -13 -43 -14 51 -1 109 17 136 44 23 23 24 31 24
145 0 68 -5 130 -11 142 -15 28 -86 58 -139 58 -25 0 -64 -9 -87 -19z"/>
<path d="M1890 3733 c0 -5 24 -87 53 -183 l53 -175 39 0 40 0 25 102 c14 56
28 104 31 107 3 3 13 -28 23 -70 36 -151 32 -144 75 -144 l38 0 48 168 c26 92
50 175 53 185 3 11 -1 17 -12 17 -8 0 -13 -6 -11 -12 3 -7 -17 -87 -43 -178
-44 -153 -50 -165 -73 -168 -24 -3 -26 2 -58 133 -18 74 -36 135 -40 135 -4 0
-17 -44 -30 -97 -42 -180 -39 -173 -66 -173 -26 0 -18 -20 -101 255 -14 47
-22 89 -19 95 3 5 -1 10 -9 10 -9 0 -16 -3 -16 -7z"/>
<path d="M1980 3643 c16 -54 34 -118 40 -142 6 -24 15 -40 19 -35 5 5 20 61
35 124 15 63 32 123 37 133 7 12 5 17 -5 17 -9 0 -21 -32 -36 -97 -12 -54 -26
-104 -30 -112 -4 -8 -19 29 -37 95 -17 59 -35 110 -41 112 -5 1 3 -41 18 -95z"/>
<path d="M2148 3727 c6 -7 25 -70 43 -140 17 -70 34 -127 38 -127 3 0 22 63
42 140 19 77 30 139 25 137 -6 -2 -22 -49 -36 -104 -14 -56 -28 -104 -31 -108
-4 -3 -9 9 -13 27 -20 102 -49 188 -63 188 -11 0 -13 -3 -5 -13z"/>
<path d="M2680 3555 l0 -185 40 0 40 0 0 185 c0 102 -3 185 -7 185 -5 0 -7
-81 -5 -180 l3 -180 -26 0 -26 0 3 180 c2 139 0 180 -9 180 -10 0 -13 -44 -13
-185z"/>
<path d="M3110 3555 c0 -141 3 -185 13 -185 9 0 12 44 12 185 0 141 -3 185
-12 185 -10 0 -13 -44 -13 -185z"/>
<path d="M3280 3733 c88 -14 110 -49 110 -176 0 -133 -17 -162 -105 -178 -39
-8 -39 -8 8 -5 37 3 56 11 78 32 29 28 29 28 29 149 0 109 -2 123 -21 144 -25
27 -61 41 -97 40 -27 -2 -27 -2 -2 -6z"/>
<path d="M3740 3555 l0 -185 23 0 c15 0 18 3 9 9 -10 6 -12 48 -10 184 2 137
0 177 -9 177 -10 0 -13 -44 -13 -185z"/>
<path d="M3996 3725 c5 -12 -11 -15 -92 -17 l-98 -3 -1 -65 0 -65 63 -3 c46
-2 62 -7 62 -17 0 -12 -14 -15 -60 -15 -68 0 -72 -6 -67 -90 l2 -45 98 -3 c90
-3 127 -15 75 -25 -17 -3 -14 -5 10 -6 26 -1 32 3 32 19 0 18 -8 20 -97 22
l-98 3 -3 57 -3 57 63 3 c57 3 63 5 66 26 3 21 0 22 -63 22 l-66 0 3 58 3 57
98 3 c89 2 97 4 97 22 0 11 -7 20 -15 20 -8 0 -12 -6 -9 -15z"/>
<path d="M5358 3583 c-4 -219 -5 -213 43 -213 l39 0 0 80 0 80 60 0 60 0 0
-81 0 -80 43 3 42 3 0 179 c0 111 -4 181 -10 183 -6 2 -9 -60 -7 -177 l3 -180
-26 0 c-25 0 -25 1 -25 80 l0 80 -80 0 -80 0 0 -80 c0 -79 0 -80 -25 -80 l-26
0 3 180 c2 99 0 180 -4 180 -4 0 -8 -71 -10 -157z"/>
<path d="M5418 3655 l3 -85 79 0 79 0 3 85 c2 63 0 85 -9 85 -9 0 -13 -23 -13
-80 l0 -80 -60 0 -60 0 0 80 c0 57 -4 80 -12 80 -10 0 -12 -22 -10 -85z"/>
<path d="M6587 3733 c-4 -3 -7 -12 -7 -20 0 -9 16 -13 55 -13 l55 0 2 -162 c3
-154 4 -163 23 -165 11 -2 14 0 8 3 -10 4 -13 48 -13 170 l0 164 -56 0 c-46 0
-55 3 -50 15 5 15 -5 20 -17 8z"/>
<path d="M6868 3734 c29 -13 8 -24 -48 -24 l-60 0 0 -164 c0 -122 -3 -166 -12
-169 -7 -3 -3 -6 10 -6 22 -1 22 -1 22 164 l0 164 58 3 c42 2 57 7 57 18 0 8
-9 16 -20 17 -11 2 -14 0 -7 -3z"/>
<path d="M7720 3737 c0 -1 -27 -80 -60 -175 -33 -95 -60 -177 -60 -183 0 -5
18 -9 39 -9 36 0 40 3 51 35 l12 35 63 0 63 0 12 -35 c9 -26 17 -35 33 -34 14
1 16 3 6 6 -8 2 -19 18 -25 36 l-9 32 -78 3 -78 3 -14 -36 c-10 -23 -22 -35
-35 -35 -11 0 -20 4 -20 9 0 5 27 86 60 180 32 94 55 171 50 171 -6 0 -10 -1
-10 -3z"/>
<path d="M7786 3732 c15 -10 127 -339 119 -351 -3 -6 1 -11 9 -11 9 0 16 4 16
9 0 5 -28 88 -61 185 -46 132 -65 176 -78 176 -10 0 -12 -3 -5 -8z"/>
<path d="M8250 3555 c0 -141 3 -185 13 -185 9 0 11 42 9 185 -2 109 -7 185
-12 185 -6 0 -10 -74 -10 -185z"/>
<path d="M8386 3618 c43 -67 83 -129 90 -137 11 -12 13 10 16 122 2 88 -1 136
-7 134 -6 -2 -11 -51 -13 -112 l-3 -108 -67 108 c-38 60 -74 111 -80 113 -7 2
22 -52 64 -120z"/>
<path d="M8538 3563 c2 -136 0 -178 -10 -185 -9 -7 -7 -8 7 -6 19 3 20 12 23
186 2 142 0 182 -10 182 -10 0 -12 -39 -10 -177z"/>
<path d="M8884 3713 c8 -16 35 -63 60 -106 44 -75 46 -80 46 -157 l0 -80 40 0
40 0 0 84 c0 83 0 84 55 177 30 52 55 97 55 102 0 4 -7 7 -16 7 -8 0 -13 -4
-10 -9 3 -5 -19 -51 -49 -102 -54 -92 -55 -96 -55 -171 0 -76 0 -78 -25 -78
-25 0 -25 1 -25 82 0 80 -1 82 -54 174 -35 60 -50 94 -43 98 7 2 2 5 -11 5
-21 1 -22 0 -8 -26z"/>
<path d="M8933 3729 c9 -6 33 -41 52 -80 20 -38 39 -69 43 -69 5 0 24 32 42
71 19 39 41 75 50 79 13 8 13 9 -2 10 -10 0 -30 -25 -53 -66 l-37 -66 -18 27
c-10 15 -26 45 -36 66 -12 28 -23 39 -38 39 -19 -1 -19 -1 -3 -11z"/>
<path d="M9470 3724 c0 -9 23 -92 52 -185 36 -117 56 -169 66 -169 10 0 12 4
4 13 -10 13 -105 323 -105 345 0 6 -4 12 -9 12 -4 0 -8 -7 -8 -16z"/>
<path d="M9527 3728 c6 -7 25 -67 42 -133 18 -66 36 -124 41 -129 9 -10 11 -5
46 144 15 63 32 118 38 122 7 5 5 8 -6 8 -18 0 -23 -12 -54 -144 -10 -42 -21
-73 -24 -69 -4 5 -20 54 -35 111 -20 69 -33 102 -43 102 -10 0 -12 -4 -5 -12z"/>
<path d="M9730 3718 c5 -12 21 -70 35 -128 34 -138 34 -139 44 -120 5 8 21 67
36 130 15 63 32 121 38 128 7 8 5 12 -6 12 -11 0 -22 -31 -42 -110 -15 -61
-29 -109 -32 -106 -2 2 -16 50 -31 107 -15 56 -33 104 -40 107 -9 3 -10 -2 -2
-20z"/>
<path d="M9923 3723 c-2 -14 -62 -237 -89 -325 -3 -11 -15 -18 -29 -18 -26 0
-24 -6 -65 160 -29 117 -29 119 -40 100 -4 -8 -20 -70 -36 -137 -19 -86 -32
-123 -43 -126 -10 -3 -8 -5 6 -6 24 -1 28 10 59 147 9 40 18 71 21 69 2 -3 16
-52 31 -109 l27 -103 40 0 39 0 48 165 c48 166 55 200 40 200 -4 0 -8 -8 -9
-17z"/>
<path d="M10260 3555 l0 -185 40 0 40 0 0 80 0 80 60 0 59 0 3 -77 3 -78 40 0
40 0 0 179 c0 111 -4 181 -10 183 -6 2 -9 -60 -7 -177 l3 -180 -26 0 c-25 0
-25 1 -25 80 l0 80 -80 0 -80 0 0 -80 c0 -79 0 -80 -25 -80 l-26 0 3 180 c2
99 0 180 -4 180 -5 0 -8 -83 -8 -185z"/>
<path d="M10318 3655 l3 -85 79 0 79 0 3 85 c2 54 -1 84 -7 82 -5 -2 -11 -38
-13 -80 l-3 -77 -59 0 -60 0 0 80 c0 57 -4 80 -12 80 -10 0 -12 -22 -10 -85z"/>
<path d="M10890 3555 l0 -185 53 2 c50 1 51 2 9 5 l-43 4 3 180 c2 138 0 179
-9 179 -10 0 -13 -44 -13 -185z"/>
<path d="M11156 3725 c5 -13 -9 -15 -95 -15 l-101 0 0 -70 0 -70 66 0 c48 0
65 -3 62 -12 -3 -8 -28 -14 -66 -16 l-62 -3 0 -69 0 -70 100 0 c121 0 135 -18
18 -23 l-83 -3 88 -2 c81 -2 87 -1 87 18 0 19 -7 20 -95 20 -105 0 -97 -6 -98
75 l-1 40 62 3 c58 3 62 5 62 27 0 23 -4 24 -62 27 l-63 3 1 38 c3 84 -6 77
99 77 88 0 95 1 95 20 0 11 -4 20 -10 20 -5 0 -7 -7 -4 -15z"/>
<path d="M11492 3558 l3 -183 40 0 40 0 3 78 c3 74 4 77 27 77 19 0 31 -14 66
-80 24 -44 49 -80 57 -80 11 0 11 2 0 13 -7 8 -28 46 -47 85 l-35 72 -43 0
-43 0 0 -80 c0 -79 0 -80 -25 -80 l-26 0 3 180 c2 141 0 180 -10 180 -10 0
-12 -40 -10 -182z"/>
<path d="M11688 3731 c52 -14 82 -48 82 -93 0 -41 -34 -88 -65 -88 -21 0 -20
-4 26 -88 32 -59 38 -76 27 -83 -9 -6 -7 -9 10 -9 12 0 22 3 22 7 0 4 -18 42
-40 85 l-41 77 23 12 c92 46 66 173 -37 184 -39 4 -39 4 -7 -4z"/>
<path d="M12110 3555 l0 -185 43 2 42 1 -38 4 -38 4 3 180 c2 98 0 179 -4 179
-5 0 -8 -83 -8 -185z"/>
<path d="M12348 3733 c52 -10 15 -22 -75 -25 l-98 -3 -3 -67 -3 -68 66 0 c51
0 65 -3 65 -15 0 -12 -14 -15 -65 -15 l-66 0 3 -67 3 -68 98 -3 c53 -1 97 -7
97 -12 0 -5 -39 -11 -87 -13 l-88 -3 95 0 c77 1 95 4 95 16 0 12 -19 16 -97
18 l-98 3 0 59 0 59 63 3 c54 3 62 5 62 23 0 18 -8 20 -62 23 l-63 3 0 59 0
59 97 3 c84 3 98 6 101 21 3 14 -3 17 -30 16 -23 -1 -26 -3 -10 -6z"/>
<path d="M3174 3697 c-9 -24 1 -290 11 -294 6 -2 10 51 10 144 l0 148 49 -1
c69 -1 76 -14 76 -140 0 -105 -10 -134 -45 -134 -8 0 -16 -4 -20 -9 -7 -13 55
5 69 19 12 12 21 188 12 226 -4 16 -19 30 -41 40 -43 18 -114 19 -121 1z"/>
<path d="M6066 3689 c-25 -20 -26 -24 -26 -130 0 -103 1 -111 25 -134 18 -19
35 -25 65 -25 30 0 47 6 65 25 23 23 25 31 25 130 0 99 -2 107 -25 130 -31 32
-91 34 -129 4z m112 -5 c21 -14 22 -23 22 -129 0 -106 -1 -115 -22 -129 -12
-9 -34 -16 -48 -16 -14 0 -36 7 -48 16 -21 14 -22 23 -22 129 0 106 1 115 22
129 12 9 34 16 48 16 14 0 36 -7 48 -16z"/>
<path d="M11560 3640 l0 -70 56 0 c64 0 91 12 104 46 21 55 -27 94 -116 94
l-44 0 0 -70z m124 39 c52 -41 18 -99 -59 -99 l-45 0 0 60 0 60 39 0 c24 0 48
-8 65 -21z"/>
<path d="M7731 3588 c-17 -51 -31 -99 -31 -106 0 -8 20 -12 65 -12 47 0 65 4
65 13 0 14 -57 187 -64 194 -2 2 -18 -38 -35 -89z m58 -20 c29 -86 29 -88 -24
-88 -30 0 -45 4 -45 13 0 15 40 137 45 137 2 0 13 -28 24 -62z"/>
<path d="M8310 3511 c0 -94 -3 -131 -12 -134 -7 -3 -3 -6 9 -6 22 -1 22 3 25
112 l3 112 70 -112 c53 -85 75 -112 90 -112 13 1 15 3 5 6 -8 2 -50 62 -94
133 -43 72 -83 130 -87 130 -5 0 -9 -58 -9 -129z"/>
<path d="M3193 3373 c9 -2 23 -2 30 0 6 3 -1 5 -18 5 -16 0 -22 -2 -12 -5z"/>
<path d="M3798 3373 c7 -3 16 -2 19 1 4 3 -2 6 -13 5 -11 0 -14 -3 -6 -6z"/>
<path d="M3838 3373 c7 -3 16 -2 19 1 4 3 -2 6 -13 5 -11 0 -14 -3 -6 -6z"/>
<path d="M3903 3373 c9 -2 23 -2 30 0 6 3 -1 5 -18 5 -16 0 -22 -2 -12 -5z"/>
<path d="M4868 3363 c12 -2 30 -2 40 0 9 3 -1 5 -23 4 -22 0 -30 -2 -17 -4z"/>
</g>
</svg>
